<?xml version="1.0" encoding="UTF-8"?>
<svg xmlns="http://www.w3.org/2000/svg" xmlns:xlink="http://www.w3.org/1999/xlink" width="307pt" height="143pt" viewBox="0 0 307 143" version="1.1">
<g id="surface1">
<path style="fill:none;stroke-width:5;stroke-linecap:round;stroke-linejoin:round;stroke:rgb(38.822937%,22.744751%,58.432007%);stroke-opacity:1;stroke-miterlimit:10;" d="M 214.277344 305.003906 C 224.550781 304.714844 245.101562 320.859375 245.890625 329.503906 C 246.679688 338.152344 243.125 354.296875 237.988281 357.464844 C 232.851562 360.636719 219.8125 359.484375 214.277344 357.753906 C 208.746094 356.023438 196.101562 335.269531 196.496094 330.660156 C 196.894531 326.046875 196.894531 326.046875 196.894531 326.046875 C 196.894531 326.046875 204.003906 305.292969 214.277344 305.003906 Z M 214.277344 305.003906 " transform="matrix(1,0,0,1,-191,-262)"/>
<path style="fill:none;stroke-width:3;stroke-linecap:round;stroke-linejoin:round;stroke:rgb(38.822937%,22.744751%,58.432007%);stroke-opacity:1;stroke-miterlimit:10;" d="M 305.8125 324.933594 C 306.640625 335.179688 291.59375 356.542969 283 357.785156 C 274.40625 359.027344 258.101562 356.320312 254.664062 351.355469 C 251.230469 346.390625 251.699219 333.308594 253.136719 327.695312 C 254.574219 322.078125 274.636719 308.367188 279.265625 308.519531 C 283.890625 308.671875 283.890625 308.671875 283.890625 308.671875 C 283.890625 308.671875 304.988281 314.691406 305.8125 324.933594 Z M 305.8125 324.933594 " transform="matrix(1,0,0,1,-191,-262)"/>
<path style="fill:none;stroke-width:4;stroke-linecap:round;stroke-linejoin:round;stroke:rgb(38.822937%,22.744751%,58.432007%);stroke-opacity:1;stroke-miterlimit:10;" d="M 262.019531 272.671875 C 272.289062 279.054688 274.210938 297.339844 266.75 304.167969 C 259.292969 310.996094 253.460938 319.785156 244.042969 314.730469 C 234.625 309.675781 229.386719 297.074219 230.425781 293.410156 C 231.460938 289.746094 238.550781 279.402344 240.828125 277.386719 C 243.105469 275.367188 243.105469 275.367188 243.105469 275.367188 C 243.105469 275.367188 251.75 266.285156 262.019531 272.671875 Z M 262.019531 272.671875 " transform="matrix(1,0,0,1,-191,-262)"/>
<path style="fill:none;stroke-width:4;stroke-linecap:round;stroke-linejoin:round;stroke:rgb(38.822937%,22.744751%,58.432007%);stroke-opacity:1;stroke-miterlimit:10;" d="M 231.824219 375.960938 C 234.105469 364.085938 250.488281 355.738281 259.535156 360.253906 C 268.582031 364.773438 278.875 367.066406 277.535156 377.667969 C 276.191406 388.273438 266.300781 397.679688 262.507812 398.023438 C 258.71875 398.367188 246.519531 395.457031 243.820312 394.054688 C 241.121094 392.652344 241.121094 392.652344 241.121094 392.652344 C 241.121094 392.652344 229.542969 387.835938 231.824219 375.960938 Z M 231.824219 375.960938 " transform="matrix(1,0,0,1,-191,-262)"/>
<path style="fill:none;stroke-width:2;stroke-linecap:round;stroke-linejoin:round;stroke:rgb(38.822937%,22.744751%,58.432007%);stroke-opacity:1;stroke-miterlimit:10;" d="M 431.511719 276.535156 C 436.890625 281.914062 436.890625 290.632812 431.511719 296.011719 C 426.132812 301.390625 417.414062 301.390625 412.035156 296.011719 C 406.65625 290.632812 406.65625 281.914062 412.035156 276.535156 C 417.414062 271.15625 426.132812 271.15625 431.511719 276.535156 " transform="matrix(1,0,0,1,-191,-262)"/>
<path style="fill:none;stroke-width:2;stroke-linecap:round;stroke-linejoin:round;stroke:rgb(38.822937%,22.744751%,58.432007%);stroke-opacity:1;stroke-miterlimit:10;" d="M 431.511719 309.75 C 436.890625 315.128906 436.890625 323.847656 431.511719 329.226562 C 426.132812 334.605469 417.414062 334.605469 412.035156 329.226562 C 406.65625 323.847656 406.65625 315.128906 412.035156 309.75 C 417.414062 304.371094 426.132812 304.371094 431.511719 309.75 " transform="matrix(1,0,0,1,-191,-262)"/>
<path style="fill:none;stroke-width:2;stroke-linecap:round;stroke-linejoin:round;stroke:rgb(38.822937%,22.744751%,58.432007%);stroke-opacity:1;stroke-miterlimit:10;" d="M 431.511719 342.960938 C 436.890625 348.339844 436.890625 357.0625 431.511719 362.441406 C 426.132812 367.820312 417.414062 367.820312 412.035156 362.441406 C 406.65625 357.0625 406.65625 348.339844 412.035156 342.960938 C 417.414062 337.582031 426.132812 337.582031 431.511719 342.960938 " transform="matrix(1,0,0,1,-191,-262)"/>
<path style="fill:none;stroke-width:2;stroke-linecap:round;stroke-linejoin:round;stroke:rgb(38.822937%,22.744751%,58.432007%);stroke-opacity:1;stroke-miterlimit:10;" d="M 431.511719 376.175781 C 436.890625 381.554688 436.890625 390.277344 431.511719 395.65625 C 426.132812 401.035156 417.414062 401.035156 412.035156 395.65625 C 406.65625 390.277344 406.65625 381.554688 412.035156 376.175781 C 417.414062 370.796875 426.132812 370.796875 431.511719 376.175781 " transform="matrix(1,0,0,1,-191,-262)"/>
<path style="fill:none;stroke-width:2;stroke-linecap:round;stroke-linejoin:round;stroke:rgb(38.822937%,22.744751%,58.432007%);stroke-opacity:1;stroke-miterlimit:10;" d="M 378.382812 367.097656 C 376.089844 377.167969 364.992188 385.273438 359.5 382.140625 C 354.007812 379.003906 347.5625 377.808594 349.164062 368.867188 C 350.769531 359.929688 357.773438 351.390625 360.230469 350.839844 C 362.6875 350.285156 370.3125 351.863281 371.949219 352.84375 C 373.582031 353.824219 373.582031 353.824219 373.582031 353.824219 C 373.582031 353.824219 380.675781 357.03125 378.382812 367.097656 Z M 378.382812 367.097656 " transform="matrix(1,0,0,1,-191,-262)"/>
<path style="fill:none;stroke-width:2;stroke-linecap:round;stroke-linejoin:round;stroke:rgb(38.822937%,22.744751%,58.432007%);stroke-opacity:1;stroke-miterlimit:10;" d="M 371.761719 323.800781 C 376.164062 328.203125 376.164062 335.34375 371.761719 339.746094 C 367.359375 344.148438 360.21875 344.148438 355.816406 339.746094 C 351.414062 335.34375 351.414062 328.203125 355.816406 323.800781 C 360.21875 319.398438 367.359375 319.398438 371.761719 323.800781 " transform="matrix(1,0,0,1,-191,-262)"/>
<path style="fill:none;stroke-width:2;stroke-linecap:round;stroke-linejoin:round;stroke:rgb(38.822937%,22.744751%,58.432007%);stroke-opacity:1;stroke-miterlimit:10;" d="M 374.511719 290.535156 C 379.890625 295.914062 379.890625 304.632812 374.511719 310.011719 C 369.132812 315.390625 360.414062 315.390625 355.035156 310.011719 C 349.65625 304.632812 349.65625 295.914062 355.035156 290.535156 C 360.414062 285.15625 369.132812 285.15625 374.511719 290.535156 " transform="matrix(1,0,0,1,-191,-262)"/>
<path style="fill:none;stroke-width:2;stroke-linecap:round;stroke-linejoin:round;stroke:rgb(38.822937%,22.744751%,58.432007%);stroke-opacity:1;stroke-miterlimit:10;" d="M 379.121094 296.75 L 399.558594 291.730469 " transform="matrix(1,0,0,1,-191,-262)"/>
<path style="fill-rule:nonzero;fill:rgb(38.822937%,22.744751%,58.432007%);fill-opacity:1;stroke-width:2;stroke-linecap:butt;stroke-linejoin:miter;stroke:rgb(38.822937%,22.744751%,58.432007%);stroke-opacity:1;stroke-miterlimit:10;" d="M 404.21875 290.585938 L 399.128906 289.980469 L 399.988281 293.476562 Z M 404.21875 290.585938 " transform="matrix(1,0,0,1,-191,-262)"/>
<path style="fill:none;stroke-width:2;stroke-linecap:round;stroke-linejoin:round;stroke:rgb(38.822937%,22.744751%,58.432007%);stroke-opacity:1;stroke-miterlimit:10;" d="M 375.796875 329.230469 L 399.394531 324.230469 " transform="matrix(1,0,0,1,-191,-262)"/>
<path style="fill-rule:nonzero;fill:rgb(38.822937%,22.744751%,58.432007%);fill-opacity:1;stroke-width:2;stroke-linecap:butt;stroke-linejoin:miter;stroke:rgb(38.822937%,22.744751%,58.432007%);stroke-opacity:1;stroke-miterlimit:10;" d="M 404.089844 323.234375 L 399.023438 322.46875 L 399.769531 325.988281 Z M 404.089844 323.234375 " transform="matrix(1,0,0,1,-191,-262)"/>
<path style="fill:none;stroke-width:2;stroke-linecap:round;stroke-linejoin:round;stroke:rgb(38.822937%,22.744751%,58.432007%);stroke-opacity:1;stroke-miterlimit:10;" d="M 377.894531 371.492188 L 400.039062 378.773438 " transform="matrix(1,0,0,1,-191,-262)"/>
<path style="fill-rule:nonzero;fill:rgb(38.822937%,22.744751%,58.432007%);fill-opacity:1;stroke-width:2;stroke-linecap:butt;stroke-linejoin:miter;stroke:rgb(38.822937%,22.744751%,58.432007%);stroke-opacity:1;stroke-miterlimit:10;" d="M 404.601562 380.269531 L 400.601562 377.0625 L 399.480469 380.480469 Z M 404.601562 380.269531 " transform="matrix(1,0,0,1,-191,-262)"/>
<path style="fill:none;stroke-width:2;stroke-linecap:round;stroke-linejoin:round;stroke:rgb(38.822937%,22.744751%,58.432007%);stroke-opacity:1;stroke-miterlimit:10;" d="M 378.773438 304.992188 L 400.09375 312.179688 " transform="matrix(1,0,0,1,-191,-262)"/>
<path style="fill-rule:nonzero;fill:rgb(38.822937%,22.744751%,58.432007%);fill-opacity:1;stroke-width:2;stroke-linecap:butt;stroke-linejoin:miter;stroke:rgb(38.822937%,22.744751%,58.432007%);stroke-opacity:1;stroke-miterlimit:10;" d="M 404.644531 313.714844 L 400.671875 310.472656 L 399.519531 313.886719 Z M 404.644531 313.714844 " transform="matrix(1,0,0,1,-191,-262)"/>
<path style="fill:none;stroke-width:2;stroke-linecap:round;stroke-linejoin:round;stroke:rgb(38.822937%,22.744751%,58.432007%);stroke-opacity:1;stroke-miterlimit:10;" d="M 379.8125 363.046875 L 399.5625 358.175781 " transform="matrix(1,0,0,1,-191,-262)"/>
<path style="fill-rule:nonzero;fill:rgb(38.822937%,22.744751%,58.432007%);fill-opacity:1;stroke-width:2;stroke-linecap:butt;stroke-linejoin:miter;stroke:rgb(38.822937%,22.744751%,58.432007%);stroke-opacity:1;stroke-miterlimit:10;" d="M 404.222656 357.027344 L 399.132812 356.429688 L 399.992188 359.925781 Z M 404.222656 357.027344 " transform="matrix(1,0,0,1,-191,-262)"/>
<path style="fill:none;stroke-width:2;stroke-linecap:round;stroke-linejoin:round;stroke:rgb(38.822937%,22.744751%,58.432007%);stroke-opacity:1;stroke-miterlimit:10;" d="M 372.960938 312.574219 L 409.097656 366.871094 " transform="matrix(1,0,0,1,-191,-262)"/>
<path style="fill-rule:nonzero;fill:rgb(38.822937%,22.744751%,58.432007%);fill-opacity:1;stroke-width:2;stroke-linecap:butt;stroke-linejoin:miter;stroke:rgb(38.822937%,22.744751%,58.432007%);stroke-opacity:1;stroke-miterlimit:10;" d="M 411.757812 370.867188 L 410.597656 365.875 L 407.601562 367.871094 Z M 411.757812 370.867188 " transform="matrix(1,0,0,1,-191,-262)"/>
<path style="fill:none;stroke-width:2;stroke-linecap:round;stroke-linejoin:round;stroke:rgb(38.822937%,22.744751%,58.432007%);stroke-opacity:1;stroke-miterlimit:10;" d="M 325.761719 384.96875 C 318.941406 390.1875 297.996094 390.585938 293.6875 385.777344 C 289.375 380.96875 284.734375 369.519531 286.820312 365.089844 C 288.910156 360.660156 298.234375 354.945312 302.730469 353.265625 C 307.226562 351.589844 324.839844 357.847656 326.585938 360.8125 C 328.332031 363.78125 328.332031 363.78125 328.332031 363.78125 C 328.332031 363.78125 332.582031 379.746094 325.761719 384.96875 Z M 325.761719 384.96875 " transform="matrix(1,0,0,1,-191,-262)"/>
<path style="fill:none;stroke-width:3;stroke-linecap:round;stroke-linejoin:round;stroke:rgb(38.822937%,22.744751%,58.432007%);stroke-opacity:1;stroke-miterlimit:10;" d="M 296.191406 305.464844 C 287.359375 306.9375 277.402344 297.191406 278.238281 289.398438 C 279.078125 281.601562 278.054688 273.484375 285.757812 271.664062 C 293.464844 269.839844 302.511719 274.574219 303.714844 277.25 C 304.917969 279.925781 305.996094 289.59375 305.707031 291.933594 C 305.417969 294.273438 305.417969 294.273438 305.417969 294.273438 C 305.417969 294.273438 305.019531 303.992188 296.191406 305.464844 Z M 296.191406 305.464844 " transform="matrix(1,0,0,1,-191,-262)"/>
<path style="fill:none;stroke-width:2;stroke-linecap:round;stroke-linejoin:round;stroke:rgb(38.822937%,22.744751%,58.432007%);stroke-opacity:1;stroke-miterlimit:10;" d="M 318.710938 334.800781 C 311.304688 330.089844 304.175781 309.277344 307.589844 303.007812 C 311.003906 296.738281 320.9375 287.4375 326.035156 287.734375 C 331.128906 288.027344 339.832031 295.039062 342.953125 298.859375 C 346.078125 302.679688 345.492188 322.859375 343.09375 325.8125 C 340.695312 328.765625 340.695312 328.765625 340.695312 328.765625 C 340.695312 328.765625 326.121094 339.507812 318.710938 334.800781 Z M 318.710938 334.800781 " transform="matrix(1,0,0,1,-191,-262)"/>
<path style="fill:none;stroke-width:2;stroke-linecap:round;stroke-linejoin:round;stroke:rgb(38.822937%,22.744751%,58.432007%);stroke-opacity:1;stroke-miterlimit:10;" d="M 341.191406 360.21875 C 334.613281 360.125 327.558594 354.996094 325.433594 348.769531 C 323.308594 342.542969 326.921875 337.574219 333.5 337.671875 C 340.078125 337.765625 347.132812 342.890625 349.257812 349.117188 C 351.382812 355.347656 347.769531 360.316406 341.191406 360.21875 " transform="matrix(1,0,0,1,-191,-262)"/>
<path style="fill:none;stroke-width:2;stroke-linecap:round;stroke-linejoin:round;stroke:rgb(38.822937%,22.744751%,58.432007%);stroke-opacity:1;stroke-miterlimit:10;" d="M 330.429688 370.054688 L 340.210938 369.148438 " transform="matrix(1,0,0,1,-191,-262)"/>
<path style="fill-rule:nonzero;fill:rgb(38.822937%,22.744751%,58.432007%);fill-opacity:1;stroke-width:2;stroke-linecap:butt;stroke-linejoin:miter;stroke:rgb(38.822937%,22.744751%,58.432007%);stroke-opacity:1;stroke-miterlimit:10;" d="M 344.992188 368.703125 L 340.046875 367.355469 L 340.378906 370.9375 Z M 344.992188 368.703125 " transform="matrix(1,0,0,1,-191,-262)"/>
<path style=" stroke:none;fill-rule:nonzero;fill:rgb(30.979919%,14.901733%,51.373291%);fill-opacity:1;" d="M 302.511719 31.535156 C 307.890625 36.914062 307.890625 45.632812 302.511719 51.011719 C 297.132812 56.390625 288.414062 56.390625 283.035156 51.011719 C 277.65625 45.632812 277.65625 36.914062 283.035156 31.535156 C 288.414062 26.15625 297.132812 26.15625 302.511719 31.535156 "/>
<path style=" stroke:none;fill-rule:nonzero;fill:rgb(30.979919%,14.901733%,51.373291%);fill-opacity:1;" d="M 302.511719 64.75 C 307.890625 70.128906 307.890625 78.847656 302.511719 84.226562 C 297.132812 89.605469 288.414062 89.605469 283.035156 84.226562 C 277.65625 78.847656 277.65625 70.128906 283.035156 64.75 C 288.414062 59.371094 297.132812 59.371094 302.511719 64.75 "/>
<path style=" stroke:none;fill-rule:nonzero;fill:rgb(30.979919%,14.901733%,51.373291%);fill-opacity:1;" d="M 302.511719 97.960938 C 307.890625 103.339844 307.890625 112.0625 302.511719 117.441406 C 297.132812 122.820312 288.414062 122.820312 283.035156 117.441406 C 277.65625 112.0625 277.65625 103.339844 283.035156 97.960938 C 288.414062 92.582031 297.132812 92.582031 302.511719 97.960938 "/>
<path style="fill:none;stroke-width:2;stroke-linecap:round;stroke-linejoin:round;stroke:rgb(38.822937%,22.744751%,58.432007%);stroke-opacity:1;stroke-miterlimit:10;" d="M 430.585938 298.132812 L 470.726562 352.144531 " transform="matrix(1,0,0,1,-191,-262)"/>
<path style="fill-rule:nonzero;fill:rgb(38.822937%,22.744751%,58.432007%);fill-opacity:1;stroke-width:2;stroke-linecap:butt;stroke-linejoin:miter;stroke:rgb(38.822937%,22.744751%,58.432007%);stroke-opacity:1;stroke-miterlimit:10;" d="M 473.589844 355.996094 L 472.171875 351.070312 L 469.28125 353.21875 Z M 473.589844 355.996094 " transform="matrix(1,0,0,1,-191,-262)"/>
<path style="fill:none;stroke-width:2;stroke-linecap:round;stroke-linejoin:round;stroke:rgb(38.822937%,22.744751%,58.432007%);stroke-opacity:1;stroke-miterlimit:10;" d="M 436.023438 356.609375 L 462.675781 363.917969 " transform="matrix(1,0,0,1,-191,-262)"/>
<path style="fill-rule:nonzero;fill:rgb(38.822937%,22.744751%,58.432007%);fill-opacity:1;stroke-width:2;stroke-linecap:butt;stroke-linejoin:miter;stroke:rgb(38.822937%,22.744751%,58.432007%);stroke-opacity:1;stroke-miterlimit:10;" d="M 467.304688 365.1875 L 463.152344 362.179688 L 462.199219 365.652344 Z M 467.304688 365.1875 " transform="matrix(1,0,0,1,-191,-262)"/>
<path style="fill:none;stroke-width:2;stroke-linecap:round;stroke-linejoin:round;stroke:rgb(38.822937%,22.744751%,58.432007%);stroke-opacity:1;stroke-miterlimit:10;" d="M 433.253906 328.785156 L 466.773438 355.933594 " transform="matrix(1,0,0,1,-191,-262)"/>
<path style="fill-rule:nonzero;fill:rgb(38.822937%,22.744751%,58.432007%);fill-opacity:1;stroke-width:2;stroke-linecap:butt;stroke-linejoin:miter;stroke:rgb(38.822937%,22.744751%,58.432007%);stroke-opacity:1;stroke-miterlimit:10;" d="M 470.503906 358.957031 L 467.90625 354.535156 L 465.640625 357.332031 Z M 470.503906 358.957031 " transform="matrix(1,0,0,1,-191,-262)"/>
<path style="fill:none;stroke-width:2;stroke-linecap:round;stroke-linejoin:round;stroke:rgb(38.822937%,22.744751%,58.432007%);stroke-opacity:1;stroke-miterlimit:10;" d="M 436.023438 290.179688 L 462.675781 297.488281 " transform="matrix(1,0,0,1,-191,-262)"/>
<path style="fill-rule:nonzero;fill:rgb(38.822937%,22.744751%,58.432007%);fill-opacity:1;stroke-width:2;stroke-linecap:butt;stroke-linejoin:miter;stroke:rgb(38.822937%,22.744751%,58.432007%);stroke-opacity:1;stroke-miterlimit:10;" d="M 467.304688 298.757812 L 463.152344 295.753906 L 462.199219 299.222656 Z M 467.304688 298.757812 " transform="matrix(1,0,0,1,-191,-262)"/>
<path style="fill:none;stroke-width:2;stroke-linecap:round;stroke-linejoin:round;stroke:rgb(38.822937%,22.744751%,58.432007%);stroke-opacity:1;stroke-miterlimit:10;" d="M 433.253906 295.570312 L 466.773438 322.71875 " transform="matrix(1,0,0,1,-191,-262)"/>
<path style="fill-rule:nonzero;fill:rgb(38.822937%,22.744751%,58.432007%);fill-opacity:1;stroke-width:2;stroke-linecap:butt;stroke-linejoin:miter;stroke:rgb(38.822937%,22.744751%,58.432007%);stroke-opacity:1;stroke-miterlimit:10;" d="M 470.503906 325.742188 L 467.90625 321.320312 L 465.640625 324.117188 Z M 470.503906 325.742188 " transform="matrix(1,0,0,1,-191,-262)"/>
<path style="fill:none;stroke-width:2;stroke-linecap:round;stroke-linejoin:round;stroke:rgb(38.822937%,22.744751%,58.432007%);stroke-opacity:1;stroke-miterlimit:10;" d="M 436.066406 382.175781 L 462.609375 375.234375 " transform="matrix(1,0,0,1,-191,-262)"/>
<path style="fill-rule:nonzero;fill:rgb(38.822937%,22.744751%,58.432007%);fill-opacity:1;stroke-width:2;stroke-linecap:butt;stroke-linejoin:miter;stroke:rgb(38.822937%,22.744751%,58.432007%);stroke-opacity:1;stroke-miterlimit:10;" d="M 467.253906 374.023438 L 462.152344 373.496094 L 463.066406 376.976562 Z M 467.253906 374.023438 " transform="matrix(1,0,0,1,-191,-262)"/>
<path style="fill:none;stroke-width:2;stroke-linecap:round;stroke-linejoin:round;stroke:rgb(38.822937%,22.744751%,58.432007%);stroke-opacity:1;stroke-miterlimit:10;" d="M 433.324219 376.707031 L 466.667969 350.125 " transform="matrix(1,0,0,1,-191,-262)"/>
<path style="fill-rule:nonzero;fill:rgb(38.822937%,22.744751%,58.432007%);fill-opacity:1;stroke-width:2;stroke-linecap:butt;stroke-linejoin:miter;stroke:rgb(38.822937%,22.744751%,58.432007%);stroke-opacity:1;stroke-miterlimit:10;" d="M 470.421875 347.132812 L 465.546875 348.714844 L 467.792969 351.53125 Z M 470.421875 347.132812 " transform="matrix(1,0,0,1,-191,-262)"/>
<path style="fill:none;stroke-width:2;stroke-linecap:round;stroke-linejoin:round;stroke:rgb(38.822937%,22.744751%,58.432007%);stroke-opacity:1;stroke-miterlimit:10;" d="M 436.066406 348.964844 L 462.609375 342.023438 " transform="matrix(1,0,0,1,-191,-262)"/>
<path style="fill-rule:nonzero;fill:rgb(38.822937%,22.744751%,58.432007%);fill-opacity:1;stroke-width:2;stroke-linecap:butt;stroke-linejoin:miter;stroke:rgb(38.822937%,22.744751%,58.432007%);stroke-opacity:1;stroke-miterlimit:10;" d="M 467.253906 340.808594 L 462.152344 340.28125 L 463.066406 343.761719 Z M 467.253906 340.808594 " transform="matrix(1,0,0,1,-191,-262)"/>
<path style="fill:none;stroke-width:2;stroke-linecap:round;stroke-linejoin:round;stroke:rgb(38.822937%,22.744751%,58.432007%);stroke-opacity:1;stroke-miterlimit:10;" d="M 433.324219 343.492188 L 466.667969 316.910156 " transform="matrix(1,0,0,1,-191,-262)"/>
<path style="fill-rule:nonzero;fill:rgb(38.822937%,22.744751%,58.432007%);fill-opacity:1;stroke-width:2;stroke-linecap:butt;stroke-linejoin:miter;stroke:rgb(38.822937%,22.744751%,58.432007%);stroke-opacity:1;stroke-miterlimit:10;" d="M 470.421875 313.917969 L 465.546875 315.5 L 467.792969 318.316406 Z M 470.421875 313.917969 " transform="matrix(1,0,0,1,-191,-262)"/>
<path style="fill:none;stroke-width:2;stroke-linecap:round;stroke-linejoin:round;stroke:rgb(38.822937%,22.744751%,58.432007%);stroke-opacity:1;stroke-miterlimit:10;" d="M 436.066406 315.75 L 462.609375 308.808594 " transform="matrix(1,0,0,1,-191,-262)"/>
<path style="fill-rule:nonzero;fill:rgb(38.822937%,22.744751%,58.432007%);fill-opacity:1;stroke-width:2;stroke-linecap:butt;stroke-linejoin:miter;stroke:rgb(38.822937%,22.744751%,58.432007%);stroke-opacity:1;stroke-miterlimit:10;" d="M 467.253906 307.59375 L 462.152344 307.066406 L 463.066406 310.550781 Z M 467.253906 307.59375 " transform="matrix(1,0,0,1,-191,-262)"/>
<path style="fill:none;stroke-width:2;stroke-linecap:round;stroke-linejoin:round;stroke:rgb(38.822937%,22.744751%,58.432007%);stroke-opacity:1;stroke-miterlimit:10;" d="M 436.023438 323.394531 L 462.675781 330.703125 " transform="matrix(1,0,0,1,-191,-262)"/>
<path style=" stroke:none;fill-rule:nonzero;fill:rgb(38.822937%,22.744751%,58.432007%);fill-opacity:1;" d="M 276.304688 69.972656 L 272.152344 66.964844 L 271.199219 70.4375 Z M 276.304688 69.972656 "/>
<path style="fill:none;stroke-width:2;stroke-linecap:butt;stroke-linejoin:miter;stroke:rgb(38.822937%,22.744751%,58.432007%);stroke-opacity:1;stroke-miterlimit:10;" d="M 467.304688 331.972656 L 463.152344 328.96875 L 462.199219 332.4375 Z M 467.304688 331.972656 " transform="matrix(1,0,0,1,-191,-262)"/>
<path style="fill:none;stroke-width:2;stroke-linecap:round;stroke-linejoin:round;stroke:rgb(38.822937%,22.744751%,58.432007%);stroke-opacity:1;stroke-miterlimit:10;" d="M 430.640625 374.097656 L 470.644531 320.769531 " transform="matrix(1,0,0,1,-191,-262)"/>
<path style="fill-rule:nonzero;fill:rgb(38.822937%,22.744751%,58.432007%);fill-opacity:1;stroke-width:2;stroke-linecap:butt;stroke-linejoin:miter;stroke:rgb(38.822937%,22.744751%,58.432007%);stroke-opacity:1;stroke-miterlimit:10;" d="M 473.527344 316.929688 L 469.207031 319.691406 L 472.085938 321.851562 Z M 473.527344 316.929688 " transform="matrix(1,0,0,1,-191,-262)"/>
<path style=" stroke:none;fill-rule:nonzero;fill:rgb(30.979919%,14.901733%,51.373291%);fill-opacity:1;" d="M 27.253906 38.316406 C 22.089844 37.253906 17.277344 33.175781 18.449219 31.347656 C 19.621094 29.515625 19.761719 27.300781 24.320312 28.09375 C 28.875 28.882812 33.613281 31.546875 34.058594 32.417969 C 34.507812 33.289062 34.261719 35.902344 33.886719 36.449219 C 33.515625 36.992188 33.515625 36.992188 33.515625 36.992188 C 33.515625 36.992188 32.421875 39.378906 27.253906 38.316406 Z M 27.253906 38.316406 "/>
<path style=" stroke:none;fill-rule:nonzero;fill:rgb(30.979919%,14.901733%,51.373291%);fill-opacity:1;" d="M 36.214844 110.785156 C 32.710938 114.730469 26.773438 116.855469 25.773438 114.925781 C 24.773438 112.996094 22.925781 111.769531 25.890625 108.21875 C 28.855469 104.667969 33.527344 101.898438 34.507812 101.945312 C 35.484375 101.992188 37.625 103.515625 37.910156 104.109375 C 38.195312 104.703125 38.195312 104.703125 38.195312 104.703125 C 38.195312 104.703125 39.714844 106.84375 36.214844 110.785156 Z M 36.214844 110.785156 "/>
<path style=" stroke:none;fill-rule:nonzero;fill:rgb(30.979919%,14.901733%,51.373291%);fill-opacity:1;" d="M 8.199219 101.820312 C 4.257812 98.316406 2.128906 92.378906 4.0625 91.378906 C 5.992188 90.378906 7.21875 88.53125 10.769531 91.496094 C 14.320312 94.460938 17.089844 99.136719 17.042969 100.113281 C 16.996094 101.089844 15.472656 103.234375 14.878906 103.515625 C 14.285156 103.800781 14.285156 103.800781 14.285156 103.800781 C 14.285156 103.800781 12.144531 105.324219 8.199219 101.820312 Z M 8.199219 101.820312 "/>
<path style="fill:none;stroke-width:2;stroke-linecap:round;stroke-linejoin:round;stroke:rgb(38.822937%,22.744751%,58.432007%);stroke-opacity:1;stroke-miterlimit:10;" d="M 313.59375 349.960938 C 308.425781 348.898438 303.617188 344.820312 304.789062 342.988281 C 305.960938 341.160156 306.097656 338.945312 310.65625 339.734375 C 315.210938 340.527344 319.949219 343.191406 320.394531 344.0625 C 320.84375 344.933594 320.597656 347.546875 320.226562 348.089844 C 319.851562 348.636719 319.851562 348.636719 319.851562 348.636719 C 319.851562 348.636719 318.757812 351.023438 313.59375 349.960938 Z M 313.59375 349.960938 " transform="matrix(1,0,0,1,-191,-262)"/>
</g>
</svg>
